<svg width="955" height="267" viewBox="0 0 955 267" fill="none" xmlns="http://www.w3.org/2000/svg">
<path d="M550.008 46.8V186H528.408L457.608 85.6V186H436.008V46.8H457.608L528.408 147V46.8H550.008ZM656.969 140.6H583.569C584.635 149.8 587.835 157.067 593.169 162.4C598.635 167.6 605.969 170.2 615.169 170.2C621.169 170.2 627.302 169.067 633.569 166.8C639.835 164.4 645.902 161 651.769 156.6H652.569V176C641.502 184.267 628.969 188.4 614.969 188.4C604.169 188.4 594.769 186.133 586.769 181.6C578.769 177.067 572.635 170.667 568.369 162.4C564.102 154 561.969 144.333 561.969 133.4C561.969 122.867 563.902 113.533 567.769 105.4C571.769 97.1333 577.435 90.7333 584.769 86.2C592.102 81.5333 600.635 79.2 610.369 79.2C619.969 79.2 628.235 81.5333 635.169 86.2C642.235 90.7333 647.635 97.1333 651.369 105.4C655.102 113.667 656.969 123.133 656.969 133.8V140.6ZM610.369 96.8C603.035 96.8 597.035 99.4 592.369 104.6C587.702 109.667 584.835 116.467 583.769 125H634.769C633.702 116.2 631.102 109.333 626.969 104.4C622.969 99.3333 617.435 96.8 610.369 96.8ZM725.491 188.4C715.091 188.4 706.024 186.133 698.291 181.6C690.691 177.067 684.824 170.733 680.691 162.6C676.557 154.333 674.491 144.867 674.491 134.2C674.491 123.4 676.557 113.867 680.691 105.6C684.957 97.3333 690.891 90.8667 698.491 86.2C706.224 81.5333 715.224 79.2 725.491 79.2C738.691 79.2 749.291 82.2 757.291 88.2V108H756.491C747.691 101.467 737.491 98.2 725.891 98.2C716.557 98.2 709.424 101.467 704.491 108C699.557 114.533 697.091 123.333 697.091 134.4C697.091 145.2 699.491 153.733 704.291 160C709.224 166.267 716.357 169.4 725.691 169.4C737.291 169.4 747.957 165.533 757.691 157.8H758.491V177.8C749.957 184.867 738.957 188.4 725.491 188.4ZM809.498 81.6H836.098V98.8H809.498V154.4C809.498 159.333 810.498 163.2 812.498 166C814.632 168.8 817.765 170.2 821.898 170.2C826.165 170.2 830.965 168.933 836.298 166.4V184.8C830.698 187.2 824.365 188.4 817.298 188.4C807.832 188.4 800.565 185.533 795.498 179.8C790.432 174.067 787.898 165.933 787.898 155.4V98.8H770.098V81.6H787.898V53.6L809.498 44.4V81.6ZM922.377 186L919.777 172.2C909.777 183 897.777 188.4 883.777 188.4C873.91 188.4 865.843 185.733 859.577 180.4C853.31 174.933 850.177 167.733 850.177 158.8C850.177 147.2 854.71 138.467 863.777 132.6C872.843 126.6 885.043 123.6 900.377 123.6C906.643 123.6 912.51 123.867 917.977 124.4V118.8C917.977 112.133 916.11 107 912.377 103.4C908.777 99.8 903.643 98 896.977 98C889.643 98 882.91 99.0667 876.777 101.2C870.777 103.333 864.443 106.733 857.777 111.4V91.4C863.91 87 870.243 83.8667 876.777 82C883.443 80.1333 890.91 79.2 899.177 79.2C911.71 79.2 921.577 82.5333 928.777 89.2C935.977 95.7333 939.577 104.8 939.577 116.4V162.8L943.977 186H922.377ZM887.577 171.2C893.31 171.2 898.577 170 903.377 167.6C908.31 165.067 913.177 161.4 917.977 156.6V139.6H899.177C890.777 139.6 884.243 140.933 879.577 143.6C874.91 146.267 872.577 150.8 872.577 157.2C872.577 161.6 873.91 165.067 876.577 167.6C879.243 170 882.91 171.2 887.577 171.2Z" fill="#FFF9F1"/>
<path d="M333.123 42.9354C347.552 106.91 353.255 229.896 248.262 208.641C200.851 188.015 164.776 88.7316 333.123 42.9354Z" stroke="#EC4612" stroke-width="22"/>
<path d="M195.721 25.8671C240.512 75.1123 307.88 180.599 207.801 213.427C157.003 218.541 75.8588 148.833 195.721 25.8671Z" stroke="#EC4612" stroke-width="22"/>
<path d="M55.0372 43.2165C119.705 57.6092 234.274 105.728 168.463 193.933C128.697 228.974 22.2867 219.334 55.0372 43.2165Z" stroke="#EC4612" stroke-width="22"/>
</svg>
