<svg width="948" height="267" viewBox="0 0 948 267" fill="none" xmlns="http://www.w3.org/2000/svg">
<path d="M543.008 46.8V186H521.408L450.608 85.6V186H429.008V46.8H450.608L521.408 147V46.8H543.008ZM649.969 140.6H576.569C577.635 149.8 580.835 157.067 586.169 162.4C591.635 167.6 598.969 170.2 608.169 170.2C614.169 170.2 620.302 169.067 626.569 166.8C632.835 164.4 638.902 161 644.769 156.6H645.569V176C634.502 184.267 621.969 188.4 607.969 188.4C597.169 188.4 587.769 186.133 579.769 181.6C571.769 177.067 565.635 170.667 561.369 162.4C557.102 154 554.969 144.333 554.969 133.4C554.969 122.867 556.902 113.533 560.769 105.4C564.769 97.1333 570.435 90.7333 577.769 86.2C585.102 81.5333 593.635 79.2 603.369 79.2C612.969 79.2 621.235 81.5333 628.169 86.2C635.235 90.7333 640.635 97.1333 644.369 105.4C648.102 113.667 649.969 123.133 649.969 133.8V140.6ZM603.369 96.8C596.035 96.8 590.035 99.4 585.369 104.6C580.702 109.667 577.835 116.467 576.769 125H627.769C626.702 116.2 624.102 109.333 619.969 104.4C615.969 99.3333 610.435 96.8 603.369 96.8ZM718.491 188.4C708.091 188.4 699.024 186.133 691.291 181.6C683.691 177.067 677.824 170.733 673.691 162.6C669.557 154.333 667.491 144.867 667.491 134.2C667.491 123.4 669.557 113.867 673.691 105.6C677.957 97.3333 683.891 90.8667 691.491 86.2C699.224 81.5333 708.224 79.2 718.491 79.2C731.691 79.2 742.291 82.2 750.291 88.2V108H749.491C740.691 101.467 730.491 98.2 718.891 98.2C709.557 98.2 702.424 101.467 697.491 108C692.557 114.533 690.091 123.333 690.091 134.4C690.091 145.2 692.491 153.733 697.291 160C702.224 166.267 709.357 169.4 718.691 169.4C730.291 169.4 740.957 165.533 750.691 157.8H751.491V177.8C742.957 184.867 731.957 188.4 718.491 188.4ZM802.498 81.6H829.098V98.8H802.498V154.4C802.498 159.333 803.498 163.2 805.498 166C807.632 168.8 810.765 170.2 814.898 170.2C819.165 170.2 823.965 168.933 829.298 166.4V184.8C823.698 187.2 817.365 188.4 810.298 188.4C800.832 188.4 793.565 185.533 788.498 179.8C783.432 174.067 780.898 165.933 780.898 155.4V98.8H763.098V81.6H780.898V53.6L802.498 44.4V81.6ZM915.377 186L912.777 172.2C902.777 183 890.777 188.4 876.777 188.4C866.91 188.4 858.843 185.733 852.577 180.4C846.31 174.933 843.177 167.733 843.177 158.8C843.177 147.2 847.71 138.467 856.777 132.6C865.843 126.6 878.043 123.6 893.377 123.6C899.643 123.6 905.51 123.867 910.977 124.4V118.8C910.977 112.133 909.11 107 905.377 103.4C901.777 99.8 896.643 98 889.977 98C882.643 98 875.91 99.0667 869.777 101.2C863.777 103.333 857.443 106.733 850.777 111.4V91.4C856.91 87 863.243 83.8667 869.777 82C876.443 80.1333 883.91 79.2 892.177 79.2C904.71 79.2 914.577 82.5333 921.777 89.2C928.977 95.7333 932.577 104.8 932.577 116.4V162.8L936.977 186H915.377ZM880.577 171.2C886.31 171.2 891.577 170 896.377 167.6C901.31 165.067 906.177 161.4 910.977 156.6V139.6H892.177C883.777 139.6 877.243 140.933 872.577 143.6C867.91 146.267 865.577 150.8 865.577 157.2C865.577 161.6 866.91 165.067 869.577 167.6C872.243 170 875.91 171.2 880.577 171.2Z" fill="#111111"/>
<path d="M333.123 42.9354C347.552 106.91 353.255 229.896 248.262 208.641C200.851 188.015 164.776 88.7316 333.123 42.9354Z" stroke="#EC4612" stroke-width="22"/>
<path d="M195.721 25.8671C240.512 75.1123 307.88 180.599 207.801 213.427C157.003 218.541 75.8588 148.833 195.721 25.8671Z" stroke="#EC4612" stroke-width="22"/>
<path d="M55.0372 43.2165C119.705 57.6092 234.274 105.728 168.463 193.933C128.697 228.974 22.2867 219.334 55.0372 43.2165Z" stroke="#EC4612" stroke-width="22"/>
</svg>
